<svg fill="none" xmlns="http://www.w3.org/2000/svg" viewBox="0 0 44 44">
  <path fill="#fff" d="M0 0h44v44H0z"/>
  <path d="M33.294 14H10.706a.762.762 0 00-.5.18.579.579 0 00-.206.435v14.77c0 .163.074.32.207.435.132.115.312.18.499.18h22.588a.762.762 0 00.5-.18.579.579 0 00.206-.435v-14.77a.579.579 0 00-.207-.435.762.762 0 00-.499-.18zm-21.882 1.23h9.882v3.693h-9.882v-3.692zm7.059 8.616v-3.692h7.058v3.692h-7.058zm-7.06-3.692h5.648v3.692h-5.647v-3.692zm9.883 8.615h-9.882v-3.692h9.882v3.692zm11.294 0h-9.882v-3.692h9.882v3.692zm0-4.923h-5.647v-3.692h5.647v3.692zm0-4.923h-9.882v-3.692h9.882v3.692z" fill="#5C5C5C" stroke="#5C5C5C"/>
</svg>
