<svg fill="none" xmlns="http://www.w3.org/2000/svg" viewBox="0 0 44 44">
  <path fill="#fff" d="M0 0h44v44H0z"/>
  <path d="M22.65 14.213v-3.56a.65.65 0 10-1.3 0v3.56a8.989 8.989 0 00-5.94 2.856A9.045 9.045 0 0013 23.218a.652.652 0 00.65.65h3.57a4.837 4.837 0 002.559 3.644 4.808 4.808 0 004.442 0 4.838 4.838 0 002.559-3.644h3.57a.652.652 0 00.65-.65c0-2.282-.86-4.478-2.41-6.15a8.989 8.989 0 00-5.94-2.855zM22 26.756a3.52 3.52 0 01-2.25-.818 3.539 3.539 0 01-1.21-2.07h6.922A3.535 3.535 0 0122 26.757zm-7.674-4.19a7.729 7.729 0 014.014-6.14 7.68 7.68 0 017.32 0 7.728 7.728 0 014.014 6.14H14.326z" fill="#5C5C5C"/>
  <path d="M15.454 28.056L13 30.518m15.546-2.462L31 30.518m-9 0V34m.65-19.787v-3.56a.65.65 0 10-1.3 0v3.56a8.989 8.989 0 00-5.94 2.856A9.045 9.045 0 0013 23.218a.652.652 0 00.65.65h3.57a4.837 4.837 0 002.559 3.644 4.808 4.808 0 004.442 0 4.838 4.838 0 002.559-3.644h3.57a.652.652 0 00.65-.65c0-2.282-.86-4.478-2.41-6.15a8.989 8.989 0 00-5.94-2.855zM22 26.756a3.52 3.52 0 01-2.25-.818 3.539 3.539 0 01-1.21-2.07h6.922A3.535 3.535 0 0122 26.757zm-7.674-4.19a7.729 7.729 0 014.014-6.14 7.68 7.68 0 017.32 0 7.728 7.728 0 014.014 6.14H14.326z" stroke="#5C5C5C" stroke-width="1.5" stroke-linecap="round"/>
</svg>
