<svg fill="none" xmlns="http://www.w3.org/2000/svg" viewBox="0 0 44 44">
  <path fill="#000" fill-opacity=".01" d="M0 0h44v44H0z"/>
  <path fill-rule="evenodd" clip-rule="evenodd" d="M22 16a4 4 0 100 8 4 4 0 000-8zm-2 4a2 2 0 114 0 2 2 0 01-4 0z" fill="#fff"/>
  <path fill-rule="evenodd" clip-rule="evenodd" d="M21.445 33.832L22 33l-.555.832a1 1 0 001.11 0L22 33l.555.832.003-.002.007-.005.023-.015.082-.057c.071-.05.173-.12.302-.214a31.433 31.433 0 004.254-3.726C29.516 27.396 32 23.902 32 20a10 10 0 00-20 0c0 3.902 2.484 7.396 4.774 9.813a31.433 31.433 0 004.254 3.726 18.887 18.887 0 00.384.27l.023.016.007.005.003.002zm-5.102-19.489A8 8 0 0130 20c0 3.098-2.016 6.104-4.226 8.437A29.403 29.403 0 0122 31.773a29.403 29.403 0 01-3.774-3.335C16.016 26.103 14 23.097 14 20a8 8 0 012.343-5.657z" fill="#fff"/>
</svg>
