<svg fill="none" xmlns="http://www.w3.org/2000/svg" viewBox="0 0 44 44">
  <path fill="#fff" d="M0 0h44v44H0z"/>
  <path d="M36.49 20.048a.431.431 0 00-.156-.294c-.012-.01-.017-.025-.03-.034-.006-.004-.013-.003-.018-.007-.008-.004-.012-.011-.02-.016l-14.052-7.643a.45.45 0 00-.428 0L7.733 19.697c-.007.005-.011.012-.019.016-.005.004-.012.003-.018.007-.013.009-.018.024-.03.034a.434.434 0 00-.122.16.432.432 0 00-.034.134c-.001.015-.01.027-.01.041V30.28a.445.445 0 00.281.414l3.194 1.274a.439.439 0 00.134.026c.009 0 .016.004.024.005l.008.001a.445.445 0 00.19-.047c.006-.003.013-.002.02-.005L22 26.326l10.65 5.622c.006.003.014.002.02.005a.421.421 0 00.355.015l3.194-1.274a.447.447 0 00.281-.414V20.09c0-.014-.009-.026-.01-.04zM22 12.954l13.005 7.073-2.12.845-10.676-5.636c-.005-.002-.01-.001-.016-.004a.414.414 0 00-.386 0c-.005.003-.011.002-.016.004l-10.676 5.636-2.12-.845L22 12.953zM8.395 20.747l2.299.918v9.23l-2.3-.917v-9.23zm3.193.884l9.965-5.26v9.182l-9.965 5.26v-9.182zm20.824 9.183l-9.965-5.26V16.37l9.965 5.26v9.183zm3.194-.836l-2.3.917v-9.23l2.3-.918v9.231z" fill="#5C5C5C" stroke="#5C5C5C"/>
</svg>
