<svg fill="none" xmlns="http://www.w3.org/2000/svg" viewBox="0 0 46 46">
  <path fill-rule="evenodd" clip-rule="evenodd" d="M35.568 6.25a4.715 4.715 0 014.713 4.713 4.715 4.715 0 01-4.713 4.713 4.715 4.715 0 01-4.713-4.713 4.715 4.715 0 014.713-4.713zm0 3.142a1.572 1.572 0 100 3.143 1.572 1.572 0 000-3.143z" fill="#5C5C5C"/>
  <path fill-rule="evenodd" clip-rule="evenodd" d="M35.568.581c5.505 0 9.95 4.361 9.95 9.705 0 3.567-1.44 6.906-3.203 9.616-2.557 3.932-5.758 6.512-5.758 6.512a1.57 1.57 0 01-1.977 0s-3.201-2.58-5.759-6.512c-1.763-2.71-3.202-6.05-3.202-9.616 0-5.344 4.445-9.705 9.95-9.705zm0 3.142c-3.745 0-6.807 2.926-6.807 6.563 0 2.936 1.242 5.67 2.695 7.903 1.431 2.2 3.086 3.923 4.112 4.9 1.027-.977 2.681-2.7 4.112-4.9 1.454-2.233 2.696-4.967 2.696-7.903 0-3.637-3.063-6.563-6.808-6.563z" fill="#5C5C5C"/>
  <path fill-rule="evenodd" clip-rule="evenodd" d="M3.624 41.59l10.54-4.864a3.662 3.662 0 012.98-.041l12.949 5.55a.54.54 0 00.427-.006l11.552-5.333a.524.524 0 00.304-.475V23.099a1.572 1.572 0 013.142 0V36.42c0 1.43-.832 2.729-2.13 3.328l-11.553 5.333a3.662 3.662 0 01-2.978.04l-12.95-5.549a.523.523 0 00-.427.006L4.198 44.787A2.62 2.62 0 01.482 42.41V20.25c0-1.43.832-2.73 2.13-3.329l11.553-5.33a3.662 3.662 0 012.978-.042l7.522 3.223a1.571 1.571 0 01-1.236 2.889l-7.521-3.224a.523.523 0 00-.428.007l-11.552 5.33a.527.527 0 00-.304.476v21.34z" fill="#5C5C5C"/>
  <path fill-rule="evenodd" clip-rule="evenodd" d="M14.098 13.672a1.572 1.572 0 013.142 0v24.089a1.572 1.572 0 01-3.142 0V13.672zM28.76 26.241a1.572 1.572 0 013.142 0v16.757a1.572 1.572 0 01-3.142 0V26.241z" fill="#5C5C5C"/>
</svg>
